{"title":"Shuddh Desi Romance (2013) 720p BRrip x264 Junaid-Zia (PimpRG)","uid":9095953,"size":1246404566,"categoryP":"video","categoryS":"hd___movies","magnet":"?xt=urn:btih:bd17d3c76a0df36ea2cee550e33a140b00f36c58&amp;dn=Shuddh+Desi+Romance+%282013%29+720p+BRrip+x264+Junaid-Zia+%28PimpRG%29&amp;tr=udp%3A%2F%2Ftracker.openbittorrent.com%3A80&amp;tr=udp%3A%2F%2Fopen.demonii.com%3A1337&amp;tr=udp%3A%2F%2Ftracker.coppersurfer.tk%3A6969&amp;tr=udp%3A%2F%2Fexodus.desync.com%3A6969","seeders":0,"leechers":1,"uploader":"junaidzia","files":-1,"time":1382676414,"description":" &lt;a href=&quot;http://imageshack.us/a/img198/739/4eyl.jpg&quot; rel=&quot;nofollow&quot; target=&quot;_NEW&quot;&gt;http://imageshack.us/a/img198/739/4eyl.jpg&lt;/a&gt;\n\n*******************************************************************************\n\nShuddh Desi Romance (2013) 720p BRrip x264 Junaid-Zia (PimpRG)\n\n*******************************************************************************\n\nIMDB :\n\n          **** &lt;a href=&quot; http://www.imdb.com/title/tt2988272/&quot; rel=&quot;nofollow&quot; target=&quot;_NEW&quot;&gt; http://www.imdb.com/title/tt2988272/&lt;/a&gt;  *****\n\nDetails : \n\nGeneral\nFormat                         : Matroska\nFile size                      : 1.15 GiB\nDuration                       : 2h 6mn\nOverall bit rate               : 1 295 Kbps\nEncoded date                   : UTC 2013-10-24 10:56:08\n\n\nVideo\nFormat                         : AVC\nFormat/Info                    : Advanced Video Codec\nFormat profile                 : &lt;a class=&quot;__cf_email__&quot; href=&quot;/cdn-cgi/l/email-protection&quot; data-cfemail=&quot;5911303e3119156a776b&quot;&gt;[email&amp;#160;protected]&lt;/a&gt;&lt;script cf-hash='f9e31' type=&quot;text/javascript&quot;&gt;\n/* &lt;![CDATA[ */!function(){try{var t=&quot;currentScript&quot;in document?document.currentScript:function(){for(var t=document.getElementsByTagName(&quot;script&quot;),e=t.length;e--;)if(t[e].getAttribute(&quot;cf-hash&quot;))return t[e]}();if(t&amp;&amp;t.previousSibling){var e,r,n,i,c=t.previousSibling,a=c.getAttribute(&quot;data-cfemail&quot;);if(a){for(e=&quot;&quot;,r=parseInt(a.substr(0,2),16),n=2;a.length-n;n+=2)i=parseInt(a.substr(n,2),16)^r,e+=String.fromCharCode(i);e=document.createTextNode(e),c.parentNode.replaceChild(e,c)}}}catch(u){}}();/* ]]&gt; */&lt;/script&gt;\nFormat settings, CABAC         : Yes\nFormat settings, ReFrames      : 4 frames\nCodec ID                       : V_MPEG4/ISO/AVC\nDuration                       : 2h 6mn\nWidth                          : 1 280 pixels\nHeight                         : 544 pixels\nDisplay aspect ratio           : 2.35:1\nFrame rate mode                : Constant\nFrame rate                     : 24.000 fps\nColor space                    : YUV\nChroma subsampling             : 4:2:0\nBit depth                      : 8 bits\nScan type                      : Progressive\nSource                         : PuLi\nStream size                    : 976 MiB (83%)\nTitle                          : *** Encoded By Junaid-Zia ***\nWriting library                : x264 core 138 r2358 9e941d1\nLanguage                       : Hindi\n\nAudio\nID                             : 2\nFormat                         : AC-3\nFormat/Info                    : Audio Coding 3\nMode extension                 : CM (complete main)\nFormat settings, Endianness    : Big\nCodec ID                       : A_AC3\nDuration                       : 2h 6mn\nBit rate mode                  : Constant\nBit rate                       : 192 Kbps\nChannel(s)                     : 6 channels\nChannel positions              : Front: L C R, Side: L R, LFE\nSampling rate                  : 48.0 KHz\nBit depth                      : 16 bits\nCompression mode               : Lossy\nStream size                    : 174 MiB (15%)\nTitle                          : *** Encoded By Junaid-Zia ***\nLanguage                       : Hindi\n\n\nText\nID                             : 3\nFormat                         : UTF-8\nCodec ID                       : S_TEXT/UTF8\nCodec ID/Info                  : UTF-8 Plain Text\nTitle                          : Muxed, *** Encoded By Junaid-Zia ***\nLanguage                       : English\n\n\nScreens : \n\n &lt;a href=&quot;\nhttp://imageshack.us/scaled/large/196/oljx.jpg&quot; rel=&quot;nofollow&quot; target=&quot;_NEW&quot;&gt;\nhttp://imageshack.us/scaled/large/196/oljx.jpg&lt;/a&gt; &lt;a href=&quot;\nhttp://imageshack.us/scaled/large/191/isnq.jpg&quot; rel=&quot;nofollow&quot; target=&quot;_NEW&quot;&gt;\nhttp://imageshack.us/scaled/large/191/isnq.jpg&lt;/a&gt; &lt;a href=&quot;\nhttp://imageshack.us/scaled/large/15/ukug.jpg&quot; rel=&quot;nofollow&quot; target=&quot;_NEW&quot;&gt;\nhttp://imageshack.us/scaled/large/15/ukug.jpg&lt;/a&gt; &lt;a href=&quot;\nhttp://imageshack.us/scaled/large/33/ta09.jpg&quot; rel=&quot;nofollow&quot; target=&quot;_NEW&quot;&gt;\nhttp://imageshack.us/scaled/large/33/ta09.jpg&lt;/a&gt; &lt;a href=&quot;\nhttp://imageshack.us/scaled/large/401/q0mr.jpg&quot; rel=&quot;nofollow&quot; target=&quot;_NEW&quot;&gt;\nhttp://imageshack.us/scaled/large/401/q0mr.jpg&lt;/a&gt; &lt;a href=&quot;\nhttp://imageshack.us/scaled/large/5/hnp9.jpg&quot; rel=&quot;nofollow&quot; target=&quot;_NEW&quot;&gt;\nhttp://imageshack.us/scaled/large/5/hnp9.jpg&lt;/a&gt; &lt;a href=&quot;\nhttp://imageshack.us/scaled/large/9/1pt2.jpg&quot; rel=&quot;nofollow&quot; target=&quot;_NEW&quot;&gt;\nhttp://imageshack.us/scaled/large/9/1pt2.jpg&lt;/a&gt;\n\n\nOfficial Website: &lt;a href=&quot;\nhttp://pimp4003.se/&quot; rel=&quot;nofollow&quot; target=&quot;_NEW&quot;&gt;\nhttp://pimp4003.se/&lt;/a&gt;\n\nSeed After Downloading, Remember Sharing is Caring.\n &lt;a href=&quot;\nhttp://torrent-stats.info/e550/20f7370e0.png&quot; rel=&quot;nofollow&quot; target=&quot;_NEW&quot;&gt;\nhttp://torrent-stats.info/e550/20f7370e0.png&lt;/a&gt;","torrent":{"xt":"urn:btih:bd17d3c76a0df36ea2cee550e33a140b00f36c58","amp;dn":"Shuddh+Desi+Romance+%282013%29+720p+BRrip+x264+Junaid-Zia+%28PimpRG%29","amp;tr":["udp%3A%2F%2Ftracker.openbittorrent.com%3A80","udp%3A%2F%2Fopen.demonii.com%3A1337","udp%3A%2F%2Ftracker.coppersurfer.tk%3A6969","udp%3A%2F%2Fexodus.desync.com%3A6969"],"infoHash":"bd17d3c76a0df36ea2cee550e33a140b00f36c58","infoHashBuffer":{"type":"Buffer","data":[189,23,211,199,106,13,243,110,162,206,229,80,227,58,20,11,0,243,108,88]},"announce":[],"urlList":[]}}